<?xml version="1.0"?>
<svg xmlns="http://www.w3.org/2000/svg" id="Fill_out_line" data-name="Fill out line" viewBox="0 0 512 512" width="512" height="512"><path d="M24,56A24.00114,24.00114,0,0,0,39.6001,78.48,23.99817,23.99817,0,0,0,56,120a20.0157,20.0157,0,0,0,2.06006-.1,23.849,23.849,0,0,0,14.58008-6.62L88,144l16,32,32-16-29.27-58.54a24.11408,24.11408,0,0,0,11.59009-12.6v-.01a24.02133,24.02133,0,0,0-16.02-32,23.87348,23.87348,0,0,0,.52-16.26A23.97985,23.97985,0,0,0,59.78,35.1a23.9423,23.9423,0,0,0-16.65015-2.6A24.00667,24.00667,0,0,0,24,56Z" style="fill:#c4d4e0"/><path d="M488,56a24.00114,24.00114,0,0,1-15.6001,22.48A23.99817,23.99817,0,0,1,456,120a20.0157,20.0157,0,0,1-2.06006-.1,23.849,23.849,0,0,1-14.58008-6.62L424,144l-16,32-32-16,29.27-58.54a24.11408,24.11408,0,0,1-11.59009-12.6v-.01a24.02133,24.02133,0,0,1,16.02-32,23.87348,23.87348,0,0,1-.52-16.26,23.97985,23.97985,0,0,1,43.04-5.49,23.9423,23.9423,0,0,1,16.65015-2.6A24.00667,24.00667,0,0,1,488,56Z" style="fill:#c4d4e0"/><rect x="88" y="336" width="336" height="80" style="fill:#e44b4d"/><rect x="88" y="224" width="336" height="80" style="fill:#e44b4d"/><rect x="64" y="304" width="384" height="32" rx="15.99998" ry="15.99998" style="fill:#80b8cc"/><rect x="64" y="192" width="384" height="32" rx="15.99998" ry="15.99998" style="fill:#80b8cc"/><path d="M424,192H88l0-.00008A112.25663,112.25663,0,0,1,195.52237,112H316.47763A112.25663,112.25663,0,0,1,424,191.99992Z" style="fill:#8acce7"/><path d="M56,248h64a0,0,0,0,1,0,0v32a0,0,0,0,1,0,0H56a16,16,0,0,1-16-16v0a16,16,0,0,1,16-16Z" style="fill:#2f4054"/><path d="M408,248h64a0,0,0,0,1,0,0v32a0,0,0,0,1,0,0H408a16,16,0,0,1-16-16v0a16,16,0,0,1,16-16Z" transform="translate(864 528) rotate(180)" style="fill:#2f4054"/><path d="M280,72a23.92693,23.92693,0,0,1-8,17.88V112H240V89.88A23.99736,23.99736,0,1,1,280,72Z" style="fill:#2f4054"/><rect x="152" y="448" width="208" height="40" style="fill:#c4d4e0"/><path d="M272,440c0-8.83656-16-40-16-40s-16,31.16344-16,40a16,16,0,0,0,32,0Z" style="fill:#e88604"/><path d="M200,440a15.99663,15.99663,0,0,1-16.76532,15.98217C174.62613,455.58162,168,448.169,168,439.5511V408l.80429.80429a113.83133,113.83133,0,0,0,23.27279,17.37941A15.989,15.989,0,0,1,200,440Z" style="fill:#e88604"/><path d="M312,440a15.99663,15.99663,0,0,0,16.76532,15.98217C337.37387,455.58162,344,448.169,344,439.5511V408l-.80429.80429a113.83133,113.83133,0,0,1-23.27279,17.37941A15.989,15.989,0,0,0,312,440Z" style="fill:#e88604"/><path d="M112,448h-8a24,24,0,0,0-24,24v16H48V472a56,56,0,0,1,56-56h8a16,16,0,0,1,16,16v0A16,16,0,0,1,112,448Z" style="fill:#2f4054"/><path d="M400,448h8a24,24,0,0,1,24,24v16h32V472a56,56,0,0,0-56-56h-8a16,16,0,0,0-16,16v0A16,16,0,0,0,400,448Z" style="fill:#2f4054"/><circle cx="188" cy="444" r="12" style="fill:#eebe33"/><circle cx="324" cy="444" r="12" style="fill:#eebe33"/><circle cx="256" cy="444" r="12" style="fill:#eebe33"/><path d="M472,472a64.08941,64.08941,0,0,0-40-59.31335V344a24,24,0,0,0,0-48v-8h24a24,24,0,0,0,0-48H432v-8a24,24,0,0,0,0-48h-2.218a120.21786,120.21786,0,0,0-113.30444-80H280V93.15723a32,32,0,1,0-48,0V104H195.52246A120.21786,120.21786,0,0,0,82.218,184H80a24,24,0,0,0,0,48v8H56a24,24,0,0,0,0,48H80v8a24,24,0,0,0,0,48v68.68665A64.08941,64.08941,0,0,0,40,472v8H16v16H496V480H472Zm-16,0v8H440v-8a32.03635,32.03635,0,0,0-32-32h-8a8,8,0,0,1,0-16h8A48.054,48.054,0,0,1,456,472ZM134.62378,424H160v15.55127c0,.15045.00806.29889.01074.44873H152a8.00008,8.00008,0,0,0-8,8v32H88v-8a16.01833,16.01833,0,0,1,16-16h8a23.99123,23.99123,0,0,0,22.62378-32ZM160,456h6.22144a23.6877,23.6877,0,0,0,16.64086,7.97314c.3877.01807.77247.02735,1.15723.02735a23.7877,23.7877,0,0,0,16.55176-6.63721c.457-.43622.88916-.89441,1.30762-1.36328h36.252a23.95664,23.95664,0,0,0,35.73828,0h36.25195c.41846.46887.85059.92706,1.30762,1.36328a23.78537,23.78537,0,0,0,16.55078,6.63721q.57716,0,1.15821-.02735A23.6877,23.6877,0,0,0,345.77856,456H352v24H160Zm176-30.68652v14.23779a8.3239,8.3239,0,0,1-7.60645,8.43945,8.00316,8.00316,0,0,1-4.42773-14.90381C328.3877,430.49756,332.36914,427.92871,336,425.31348ZM304,440H280c0-3.71436-1.78662-9.63342-4.23315-16h34.36694A24.085,24.085,0,0,0,304,440Zm-40,.00488a8,8,0,0,1-16,.00147c.05273-2.854,3.53711-11.79395,8-21.61524C260.46191,428.21094,263.94629,437.14893,264,440.00488ZM232,440H208a24.085,24.085,0,0,0-6.13379-16h34.36694C233.78662,430.36658,232,436.28564,232,440Zm-43.96582-6.91309a8.0021,8.0021,0,0,1-4.42773,14.90381A8.3239,8.3239,0,0,1,176,439.55127V425.31348C179.63086,427.92871,183.61133,430.49707,188.03418,433.08691ZM360,440h-8.01074c.00268-.14984.01074-.29828.01074-.44873V424h25.37622A23.99123,23.99123,0,0,0,400,456h8a16.01833,16.01833,0,0,1,16,16v8H368V448A8.00008,8.00008,0,0,0,360,440ZM464,264a8.00917,8.00917,0,0,1-8,8H400V256h56A8.00917,8.00917,0,0,1,464,264ZM245.332,83.91553a16,16,0,1,1,21.33594,0A8.00206,8.00206,0,0,0,264,89.87988V104H248V89.87988A8.00206,8.00206,0,0,0,245.332,83.91553Zm-112.043,56.69677A103.5139,103.5139,0,0,1,195.52246,120H316.47754a104.23057,104.23057,0,0,1,96.16162,64H99.36084A103.39485,103.39485,0,0,1,133.28906,140.6123ZM72,208a8.00917,8.00917,0,0,1,8-8H432a8,8,0,0,1,0,16H80A8.00917,8.00917,0,0,1,72,208ZM48,264a8.00917,8.00917,0,0,1,8-8h56v16H56A8.00917,8.00917,0,0,1,48,264Zm48,24h24a8.00008,8.00008,0,0,0,8-8V248a8.00008,8.00008,0,0,0-8-8H96v-8H416v8H392a8.00008,8.00008,0,0,0-8,8v32a8.00008,8.00008,0,0,0,8,8h24v8H96ZM72,320a8.00917,8.00917,0,0,1,8-8H432a8,8,0,0,1,0,16H80A8.00917,8.00917,0,0,1,72,320Zm24,88V344H416v64H352a8.00014,8.00014,0,0,0-13.65527-5.65869l-.80664.80615c-1.65967,1.65961-3.43775,3.26856-5.32788,4.85254H268.84546c-2.34253-4.98126-4.48071-9.22333-5.72827-11.65381a8.00054,8.00054,0,0,0-14.23438,0c-1.24756,2.43048-3.38574,6.67255-5.72827,11.65381H179.79c-1.89087-1.58447-3.66968-3.19409-5.33008-4.85449l-.80469-.8042A8.00014,8.00014,0,0,0,160,408ZM56,472a48.054,48.054,0,0,1,48-48h8a8,8,0,0,1,0,16h-8a32.03635,32.03635,0,0,0-32,32v8H56Z"/><path d="M394.98877,104.13409l-6.144,12.28827,14.31054,7.15528,20-40-14.31054-7.15528L402.645,88.82178a16.00329,16.00329,0,0,1,24.02-20.74951L437.335,56.15039A31.94683,31.94683,0,0,0,416,48a16,16,0,0,1,32,0h16a31.9549,31.9549,0,0,0-1.00439-7.96771C463.3291,40.01135,463.66406,40,464,40a15.98918,15.98918,0,0,1,9.22754,29.05463A31.79915,31.79915,0,0,0,456,64V80a16,16,0,1,1-6.38623,30.66058l5.5415-11.08294-14.31054-7.15528-24,48,14.31054,7.15528L442.446,124.99622a31.99764,31.99764,0,0,0,41.7129-44.18457,31.96485,31.96485,0,0,0-29.51246-55.39734A31.984,31.984,0,0,0,400,48a32.31146,32.31146,0,0,0,.2749,4.14679,31.98264,31.98264,0,0,0-5.28613,51.9873Z"/><path d="M27.84106,80.81165A32.00591,32.00591,0,0,0,69.554,124.99622l11.29077,22.58142,14.31054-7.15528-24-48L56.84473,99.57764l5.5415,11.08294A15.99617,15.99617,0,1,1,56,80V64a31.79915,31.79915,0,0,0-17.22754,5.05463A15.98918,15.98918,0,0,1,48,40c.33594,0,.6709.01135,1.00439.03229A31.9549,31.9549,0,0,0,48,48H64a16,16,0,0,1,32,0,31.94683,31.94683,0,0,0-21.335,8.15039L85.335,68.07227a16.00424,16.00424,0,0,1,24.02,20.74951l-6.19971-12.39942L88.84473,83.57764l20,40,14.31054-7.15528-6.144-12.28827a31.98264,31.98264,0,0,0-5.28613-51.9873A31.96359,31.96359,0,0,0,80,16a31.90055,31.90055,0,0,0-22.64648,9.41431A31.96881,31.96881,0,0,0,27.84106,80.81165Z"/></svg>
